<mxfile host="app.diagrams.net" agent="Mozilla/5.0 (Windows NT 10.0; WOW64) AppleWebKit/537.36 (KHTML, like Gecko) Chrome/101.0.4951.64 Safari/537.36" version="27.1.3">
  <diagram name="第 1 页" id="SBEC2bcYsUzqKlGrP__U">
    <mxGraphModel dx="1251" dy="676" grid="1" gridSize="10" guides="1" tooltips="1" connect="1" arrows="1" fold="1" page="1" pageScale="1" pageWidth="827" pageHeight="1169" math="0" shadow="0">
      <root>
        <mxCell id="0" />
        <mxCell id="1" parent="0" />
        <mxCell id="6b_HaOH0MpqOQaZXL_W9-2" style="edgeStyle=orthogonalEdgeStyle;rounded=0;orthogonalLoop=1;jettySize=auto;html=1;exitX=1;exitY=0.5;exitDx=0;exitDy=0;" edge="1" parent="1" source="6b_HaOH0MpqOQaZXL_W9-1" target="6b_HaOH0MpqOQaZXL_W9-3">
          <mxGeometry relative="1" as="geometry">
            <mxPoint x="240" y="125" as="targetPoint" />
          </mxGeometry>
        </mxCell>
        <mxCell id="6b_HaOH0MpqOQaZXL_W9-1" value="开始" style="ellipse;whiteSpace=wrap;html=1;" vertex="1" parent="1">
          <mxGeometry x="100" y="100" width="70" height="50" as="geometry" />
        </mxCell>
        <mxCell id="6b_HaOH0MpqOQaZXL_W9-4" style="edgeStyle=orthogonalEdgeStyle;rounded=0;orthogonalLoop=1;jettySize=auto;html=1;exitX=1;exitY=0.5;exitDx=0;exitDy=0;" edge="1" parent="1" source="6b_HaOH0MpqOQaZXL_W9-3" target="6b_HaOH0MpqOQaZXL_W9-5">
          <mxGeometry relative="1" as="geometry">
            <mxPoint x="400" y="125" as="targetPoint" />
          </mxGeometry>
        </mxCell>
        <mxCell id="6b_HaOH0MpqOQaZXL_W9-3" value="WMS新建销毁单" style="whiteSpace=wrap;html=1;rounded=1;glass=0;strokeWidth=1;shadow=0;" vertex="1" parent="1">
          <mxGeometry x="205" y="100" width="125" height="50" as="geometry" />
        </mxCell>
        <mxCell id="6b_HaOH0MpqOQaZXL_W9-5" value="清空原货号的库位库存" style="rounded=1;whiteSpace=wrap;html=1;fontSize=12;glass=0;strokeWidth=1;shadow=0;fillColor=#d5e8d4;strokeColor=#82b366;" vertex="1" parent="1">
          <mxGeometry x="390" y="105" width="120" height="40" as="geometry" />
        </mxCell>
        <mxCell id="6b_HaOH0MpqOQaZXL_W9-6" value="生成原货号的销毁出库库存日志" style="rounded=1;whiteSpace=wrap;html=1;fontSize=12;glass=0;strokeWidth=1;shadow=0;fillColor=#d5e8d4;strokeColor=#82b366;" vertex="1" parent="1">
          <mxGeometry x="390" y="145" width="120" height="40" as="geometry" />
        </mxCell>
        <mxCell id="6b_HaOH0MpqOQaZXL_W9-8" value="创建EOS货号" style="rounded=1;whiteSpace=wrap;html=1;fontSize=12;glass=0;strokeWidth=1;shadow=0;fillColor=#d5e8d4;strokeColor=#82b366;" vertex="1" parent="1">
          <mxGeometry x="390" y="185" width="120" height="40" as="geometry" />
        </mxCell>
      </root>
    </mxGraphModel>
  </diagram>
</mxfile>
